<svg width="53" height="53" viewBox="0 0 53 53" fill="none" xmlns="http://www.w3.org/2000/svg">
<path d="M26.2256 50.4511C39.6049 50.4511 50.4511 39.6049 50.4511 26.2256C50.4511 12.8462 39.6049 2 26.2256 2C12.8462 2 2 12.8462 2 26.2256C2 39.6049 12.8462 50.4511 26.2256 50.4511Z" fill="#EAFBFF" fill-opacity="0.63" stroke="#C311BF" stroke-width="3.63384" stroke-linecap="round" stroke-linejoin="round"/>
<path d="M3.21143 27.4368L16.5355 32.2819L14.1129 40.7608L16.5355 48.0285" fill="#EAFBFF" fill-opacity="0.63"/>
<path d="M3.21143 27.4368L16.5355 32.2819L14.1129 40.7608L16.5355 48.0285" stroke="#C311BF" stroke-width="3.63384" stroke-linecap="round" stroke-linejoin="round"/>
<path d="M38.3385 46.8172L37.1272 40.7608L31.0708 38.3383V29.8593L38.3385 27.4368L49.24 28.648" fill="#EAFBFF" fill-opacity="0.63"/>
<path d="M38.3385 46.8172L37.1272 40.7608L31.0708 38.3383V29.8593L38.3385 27.4368L49.24 28.648" stroke="#C311BF" stroke-width="3.63384" stroke-linecap="round" stroke-linejoin="round"/>
<path d="M43.1834 10.479L41.9721 14.1128L33.4932 15.3241V22.5918L39.5496 20.1692H44.3947L49.2398 22.5918" fill="#EAFBFF" fill-opacity="0.63"/>
<path d="M43.1834 10.479L41.9721 14.1128L33.4932 15.3241V22.5918L39.5496 20.1692H44.3947L49.2398 22.5918" stroke="#C311BF" stroke-width="3.63384" stroke-linecap="round" stroke-linejoin="round"/>
<path d="M3.21143 22.5918L9.26782 17.7467L15.3242 16.5354L20.1693 9.26772L17.7468 4.42261" fill="#EAFBFF" fill-opacity="0.63"/>
<path d="M3.21143 22.5918L9.26782 17.7467L15.3242 16.5354L20.1693 9.26772L17.7468 4.42261" stroke="#C311BF" stroke-width="3.63384" stroke-linecap="round" stroke-linejoin="round"/>
</svg>
